<svg width="20" height="21" viewBox="0 0 20 21" fill="none" xmlns="http://www.w3.org/2000/svg">
<path d="M9.99996 8.83335C11.8409 8.83335 13.3333 7.34097 13.3333 5.50002C13.3333 3.65907 11.8409 2.16669 9.99996 2.16669C8.15901 2.16669 6.66663 3.65907 6.66663 5.50002C6.66663 7.34097 8.15901 8.83335 9.99996 8.83335Z" stroke="#808080" stroke-width="1.5"/>
<path d="M16.665 15.5C16.6666 15.3634 16.6666 15.2242 16.6666 15.0834C16.6666 13.0125 13.6816 11.3334 9.99998 11.3334C6.31831 11.3334 3.33331 13.0125 3.33331 15.0834C3.33331 17.1542 3.33331 18.8334 9.99998 18.8334C11.8591 18.8334 13.2 18.7025 14.1666 18.4692" stroke="#808080" stroke-width="1.5" stroke-linecap="round"/>
</svg>
