<svg width="24" height="25" viewBox="0 0 24 25" fill="none" xmlns="http://www.w3.org/2000/svg">
<path d="M12 15.5C13.6569 15.5 15 14.1569 15 12.5C15 10.8431 13.6569 9.5 12 9.5C10.3431 9.5 9 10.8431 9 12.5C9 14.1569 10.3431 15.5 12 15.5Z" stroke="#808080" stroke-width="1.5"/>
<path d="M3.66102 11.14C4.13402 11.436 4.43802 11.942 4.43802 12.5C4.43802 13.058 4.13402 13.564 3.66102 13.86C3.34002 14.063 3.13202 14.224 2.98502 14.416C2.82511 14.6244 2.70784 14.8623 2.63989 15.1161C2.57194 15.3699 2.55466 15.6345 2.58902 15.895C2.64102 16.289 2.87402 16.693 3.33902 17.5C3.80602 18.307 4.03902 18.71 4.35402 18.953C4.56246 19.1129 4.80036 19.2302 5.05413 19.2981C5.3079 19.3661 5.57257 19.3834 5.83302 19.349C6.07302 19.317 6.31602 19.219 6.65202 19.041C6.89248 18.9094 7.16245 18.8411 7.43656 18.8425C7.71067 18.8439 7.97992 18.915 8.21902 19.049C8.70202 19.329 8.98902 19.844 9.00902 20.402C9.02302 20.782 9.05902 21.042 9.15202 21.265C9.25254 21.5078 9.39992 21.7284 9.58575 21.9143C9.77158 22.1001 9.9922 22.2475 10.235 22.348C10.602 22.5 11.068 22.5 12 22.5C12.932 22.5 13.398 22.5 13.765 22.348C14.0078 22.2475 14.2285 22.1001 14.4143 21.9143C14.6001 21.7284 14.7475 21.5078 14.848 21.265C14.94 21.042 14.977 20.782 14.991 20.402C15.011 19.844 15.298 19.328 15.781 19.049C16.0201 18.915 16.2894 18.8439 16.5635 18.8425C16.8376 18.8411 17.1076 18.9094 17.348 19.041C17.684 19.219 17.928 19.317 18.168 19.349C18.6937 19.4181 19.2253 19.2757 19.646 18.953C19.961 18.711 20.194 18.307 20.66 17.5C20.868 17.14 21.029 16.861 21.149 16.627M20.339 13.861C20.1049 13.7187 19.9108 13.5192 19.7749 13.2814C19.639 13.0435 19.5657 12.775 19.562 12.501C19.562 11.942 19.866 11.436 20.339 11.139C20.66 10.937 20.867 10.776 21.015 10.584C21.1749 10.3756 21.2922 10.1377 21.3602 9.88389C21.4281 9.63012 21.4454 9.36545 21.411 9.105C21.359 8.711 21.126 8.307 20.661 7.5C20.194 6.693 19.961 6.29 19.646 6.047C19.4376 5.88709 19.1997 5.76981 18.9459 5.70187C18.6921 5.63392 18.4275 5.61664 18.167 5.651C17.927 5.683 17.684 5.781 17.347 5.959C17.1067 6.09042 16.8369 6.15862 16.563 6.15722C16.2891 6.15582 16.02 6.08486 15.781 5.951C15.5455 5.81091 15.3494 5.61324 15.2112 5.37657C15.073 5.1399 14.9973 4.87199 14.991 4.598C14.977 4.218 14.941 3.958 14.848 3.735C14.7475 3.49218 14.6001 3.27155 14.4143 3.08572C14.2285 2.8999 14.0078 2.75251 13.765 2.652C13.398 2.5 12.932 2.5 12 2.5C11.068 2.5 10.602 2.5 10.235 2.652C9.9922 2.75251 9.77158 2.8999 9.58575 3.08572C9.39992 3.27155 9.25254 3.49218 9.15202 3.735C9.06002 3.958 9.02302 4.218 9.00902 4.598C9.00279 4.87199 8.92702 5.1399 8.78884 5.37657C8.65065 5.61324 8.45457 5.81091 8.21902 5.951C7.97992 6.08504 7.71067 6.1561 7.43656 6.1575C7.16245 6.1589 6.89248 6.09059 6.65202 5.959C6.31602 5.781 6.07202 5.683 5.83202 5.651C5.30634 5.58187 4.77472 5.72431 4.35402 6.047C4.04002 6.29 3.80602 6.693 3.34002 7.5C3.13202 7.86 2.97102 8.139 2.85102 8.373" stroke="#808080" stroke-width="1.5" stroke-linecap="round"/>
</svg>
