<svg width="20" height="21" viewBox="0 0 20 21" fill="none" xmlns="http://www.w3.org/2000/svg">
<path fill-rule="evenodd" clip-rule="evenodd" d="M2.10002 7.01913C1.66669 7.80829 1.66669 8.76246 1.66669 10.6691V11.9375C1.66669 15.1875 1.66669 16.8133 2.64335 17.8233C3.61919 18.8333 5.19085 18.8333 8.33335 18.8333H11.6667C14.8092 18.8333 16.3809 18.8333 17.3567 17.8233C18.3334 16.8133 18.3334 15.1883 18.3334 11.9375V10.67C18.3334 8.76246 18.3334 7.80913 17.9 7.01913C17.4684 6.22829 16.6775 5.73829 15.0967 4.75663L13.43 3.72246C11.7592 2.68496 10.9234 2.16663 10 2.16663C9.07669 2.16663 8.24169 2.68496 6.57002 3.72246L4.90335 4.75663C3.32252 5.73829 2.53252 6.22829 2.10002 7.01913ZM9.37502 15.5C9.37502 15.6657 9.44087 15.8247 9.55808 15.9419C9.67529 16.0591 9.83426 16.125 10 16.125C10.1658 16.125 10.3248 16.0591 10.442 15.9419C10.5592 15.8247 10.625 15.6657 10.625 15.5V13C10.625 12.8342 10.5592 12.6752 10.442 12.558C10.3248 12.4408 10.1658 12.375 10 12.375C9.83426 12.375 9.67529 12.4408 9.55808 12.558C9.44087 12.6752 9.37502 12.8342 9.37502 13V15.5Z" fill="#808080"/>
</svg>
